<?xml version="1.0" encoding="UTF-8"?>
<!DOCTYPE svg PUBLIC "-//W3C//DTD SVG 1.1//EN" "http://www.w3.org/Graphics/SVG/1.1/DTD/svg11.dtd">
<!-- Creator: CorelDRAW 2020 (64 Bit) -->
<svg xmlns="http://www.w3.org/2000/svg" xml:space="preserve" width="2.7092mm" height="1.8362mm" version="1.1" style="shape-rendering:geometricPrecision; text-rendering:geometricPrecision; image-rendering:optimizeQuality; fill-rule:evenodd; clip-rule:evenodd"
viewBox="0 0 273.77 185.55"
 xmlns:xlink="http://www.w3.org/1999/xlink"
 xmlns:xodm="http://www.corel.com/coreldraw/odm/2003">
 <defs>
  <style type="text/css">
   <![CDATA[
    .fil0 {fill:black}
   ]]>
  </style>
 </defs>
 <g id="Camada_x0020_1">
  <metadata id="CorelCorpID_0Corel-Layer"/>
  <path class="fil0" d="M-0 51.04l95.46 -51.04 150.38 24.42 27.93 24.74 -63.84 136.39 -182 0 11.91 -24.15 -39.83 -110.36zm246.92 -16.63l-137.91 -22.61 -36.5 96.16 -20.92 -62.26 15.54 -20.01 -55.19 29.9 34.95 96.74 53.24 -10.5 43.1 -96.07 24.82 -11.36 78.86 0zm-137.08 129.27l-9.82 2.24 -2.83 0 1.72 -2.24 10.93 0zm-44.25 2.85l-1.77 3.56 -12.84 0 -2.67 5.35 7.71 0 1.32 -1.82 -5.64 0 3.13 -2.63 8.53 0 -3.98 8.01 -17.99 0 6.2 -12.47 17.99 0zm7.8 3.56l-1.33 2.68 7.71 0 1.33 -2.68 -7.71 0zm-2.51 5.03l-1.93 3.88 -5.13 0 6.2 -12.47 17.99 0 -4.88 9.79 -3.84 0 2.53 2.68 -7.28 0 -3.66 -3.88zm61.96 -8.59l-1.77 3.56 -12.84 0 -0.81 1.69 10.93 0 -1.4 2.9 -10.8 0 -2.35 4.33 -5.14 0 6.2 -12.47 17.99 0zm3.38 12.47l-5.14 0 6.2 -12.47 5.14 0 -6.2 12.47zm19.05 -3.57l0.88 -1.78 5.14 0 -2.66 5.35 -17.99 0 6.2 -12.47 17.99 0 -2.66 5.35 -5.14 0 0.9 -1.79 -7.71 0 -2.67 5.35 7.71 0zm14.01 -8.9l17.99 0 -6.2 12.47 -17.99 0 6.2 -12.47zm3.38 3.56l-2.67 5.35 7.71 0 2.67 -5.35 -7.71 0zm12.84 8.91l1.79 -3.3 12.84 0 0.8 -1.69 -12.85 0 3.63 -7.48 17.99 0 -1.66 3.29 -12.84 0 -0.69 1.42 12.84 0 -3.86 7.75 -17.99 0zm-93.05 -12.47l17.99 0 -6.2 12.47 -5.14 0 1.32 -2.68 -7.71 0 -1.32 2.68 -5.13 0 6.2 -12.47zm3.37 3.56l-1.33 2.68 7.7 0 1.34 -2.68 -7.71 0zm48.22 -56.69l11.48 -25.74 46.51 0 8.44 -18.36 -40 0 12.35 2.37 -2.85 5.97 -42.18 0 11.71 -25.6 20.36 -9.33 80.27 0 11.7 9.33 -44.28 97.8c0,0.1 -0.76,0.52 -2.27,1.25 -1.52,0.75 -3.35,1.61 -5.51,2.58 -2.15,0.97 -4.4,1.97 -6.71,2.99 -2.31,1.02 -4.19,1.86 -5.63,2.51 -0.32,0.18 -1.2,0.44 -2.65,0.77 -1.43,0.31 -2.32,0.49 -2.64,0.49l-143.3 0 57.14 -11.27 12.36 -27.97 42.42 0 -3.77 8.07 -17.89 3.48 42.54 0 8.9 -19.34 -46.52 0z"/>
 </g>
</svg>
